<svg xmlns="http://www.w3.org/2000/svg" xmlns:xlink="http://www.w3.org/1999/xlink" xmlns:lucid="lucid" width="1445" height="785"><g transform="translate(-170 -45)" lucid:page-tab-id="ZvKdXZheBP8n"><path d="M200 86a6 6 0 0 1 6-6h368a6 6 0 0 1 6 6v68a6 6 0 0 1-6 6H206a6 6 0 0 1-6-6z" stroke="#000" stroke-opacity="0" stroke-width="2" fill="#4c535d"/><use xlink:href="#a" transform="matrix(1,0,0,1,204,84) translate(115.23222222222222 25.907777777777778)"/><use xlink:href="#b" transform="matrix(1,0,0,1,204,84) translate(177.7285185185185 25.907777777777778)"/><use xlink:href="#c" transform="matrix(1,0,0,1,204,84) translate(193.68037037037038 25.907777777777778)"/><use xlink:href="#d" transform="matrix(1,0,0,1,204,84) translate(189.31 60.05444444444444)"/><path d="M281.8 157.4h220.72M281.84 157.4h-1.54M502.48 157.4h1.54" stroke="#03dac6" stroke-width="3" fill="none"/><path d="M280 126a6 6 0 0 1 6-6h188.05a6 6 0 0 1 6 6v19.04a6 6 0 0 1-6 6H286a6 6 0 0 1-6-6z" fill="#fff" fill-opacity="0"/><use xlink:href="#e" transform="matrix(1,0,0,1,285,125) translate(16.996059670781904 14.917037037037037)"/><use xlink:href="#f" transform="matrix(1,0,0,1,285,125) translate(77.2889609053498 14.917037037037037)"/><use xlink:href="#g" transform="matrix(1,0,0,1,285,125) translate(89.73844650205761 14.917037037037037)"/><use xlink:href="#h" transform="matrix(1,0,0,1,285,125) translate(121.13834362139917 14.917037037037037)"/><use xlink:href="#i" transform="matrix(1,0,0,1,285,125) translate(146.632170781893 14.917037037037037)"/><path d="M530.44 259.05a6 6 0 0 1 6-6h228a6 6 0 0 1 6 6v156a6 6 0 0 1-6 6h-228a6 6 0 0 1-6-6z" fill="#bb86fc"/><path d="M530.44 293.05v-34a6 6 0 0 1 6-6h228a6 6 0 0 1 6 6v34" fill="#966bca"/><path d="M530.44 259.05a6 6 0 0 1 6-6h228a6 6 0 0 1 6 6v156a6 6 0 0 1-6 6h-228a6 6 0 0 1-6-6zM530.44 293.05h240M640.44 293.05v128" stroke="#9e66e4" stroke-width="2" fill="none"/><use xlink:href="#j" transform="matrix(1,0,0,1,540.4389152094515,253.0537971176243) translate(0 23.6)"/><use xlink:href="#k" transform="matrix(1,0,0,1,535.4389152094515,295.5537971176243) translate(0 17.1)"/><use xlink:href="#l" transform="matrix(1,0,0,1,535.4389152094515,295.5537971176243) translate(18.95 17.1)"/><use xlink:href="#m" transform="matrix(1,0,0,1,645.4389152094514,295.5537971176243) translate(0 17.1)"/><use xlink:href="#n" transform="matrix(1,0,0,1,645.4389152094514,295.5537971176243) translate(48.9 17.1)"/><use xlink:href="#o" transform="matrix(1,0,0,1,535.4389152094515,327.5537971176243) translate(0 17.1)"/><use xlink:href="#p" transform="matrix(1,0,0,1,645.4389152094514,327.5537971176243) translate(0 17.1)"/><use xlink:href="#q" transform="matrix(1,0,0,1,535.4389152094515,359.5537971176243) translate(0 17.1)"/><use xlink:href="#p" transform="matrix(1,0,0,1,645.4389152094514,359.5537971176243) translate(0 17.1)"/><use xlink:href="#r" transform="matrix(1,0,0,1,535.4389152094515,391.5537971176243) translate(0 17.1)"/><use xlink:href="#p" transform="matrix(1,0,0,1,645.4389152094514,391.5537971176243) translate(0 17.1)"/><path d="M240 542.96a6 6 0 0 1 6-6h528a6 6 0 0 1 6 6v220a6 6 0 0 1-6 6H246a6 6 0 0 1-6-6z" fill="#bb86fc"/><path d="M240 576.96v-34a6 6 0 0 1 6-6h528a6 6 0 0 1 6 6v34" fill="#966bca"/><path d="M240 542.96a6 6 0 0 1 6-6h528a6 6 0 0 1 6 6v220a6 6 0 0 1-6 6H246a6 6 0 0 1-6-6zM240 576.96h540M403.5 576.96v192" stroke="#9e66e4" stroke-width="2" fill="none"/><use xlink:href="#s" transform="matrix(1,0,0,1,250,536.9641297660421) translate(0 23.6)"/><use xlink:href="#k" transform="matrix(1,0,0,1,245,579.4641297660421) translate(0 17.1)"/><use xlink:href="#l" transform="matrix(1,0,0,1,245,579.4641297660421) translate(18.95 17.1)"/><use xlink:href="#m" transform="matrix(1,0,0,1,408.4999999999998,579.4641297660421) translate(0 17.1)"/><use xlink:href="#n" transform="matrix(1,0,0,1,408.4999999999998,579.4641297660421) translate(48.9 17.1)"/><use xlink:href="#t" transform="matrix(1,0,0,1,245,611.4641297660421) translate(0 17.1)"/><use xlink:href="#u" transform="matrix(1,0,0,1,245,611.4641297660421) translate(57.900000000000006 17.1)"/><use xlink:href="#m" transform="matrix(1,0,0,1,408.4999999999998,611.4641297660421) translate(0 17.1)"/><use xlink:href="#n" transform="matrix(1,0,0,1,408.4999999999998,611.4641297660421) translate(48.9 17.1)"/><use xlink:href="#q" transform="matrix(1,0,0,1,245,643.4641297660421) translate(0 17.1)"/><use xlink:href="#p" transform="matrix(1,0,0,1,408.4999999999998,643.4641297660421) translate(0 17.1)"/><use xlink:href="#v" transform="matrix(1,0,0,1,245,675.4641297660421) translate(0 17.1)"/><use xlink:href="#w" transform="matrix(1,0,0,1,408.4999999999998,675.4641297660421) translate(0 17.1)"/><use xlink:href="#x" transform="matrix(1,0,0,1,245,707.4641297660421) translate(0 17.1)"/><use xlink:href="#y" transform="matrix(1,0,0,1,408.4999999999998,707.4641297660421) translate(0 17.1)"/><use xlink:href="#z" transform="matrix(1,0,0,1,408.4999999999998,707.4641297660421) translate(49.95 17.1)"/><use xlink:href="#A" transform="matrix(1,0,0,1,408.4999999999998,707.4641297660421) translate(160.70000000000002 17.1)"/><use xlink:href="#B" transform="matrix(1,0,0,1,408.4999999999998,707.4641297660421) translate(284.45000000000005 17.1)"/><use xlink:href="#C" transform="matrix(1,0,0,1,245,739.4641297660421) translate(0 17.1)"/><use xlink:href="#p" transform="matrix(1,0,0,1,408.4999999999998,739.4641297660421) translate(0 17.1)"/><path d="M509.44 308.82H205a6 6 0 0 0-6 6v308.6a1.5 1.5 0 0 0 1.5 1.5" stroke="#03dac6" stroke-width="3" fill="none"/><path d="M509.44 298.82v20M529.44 308.82h-20" stroke="#03dac6" stroke-width="3" fill="#fff"/><path d="M238.33 634.9l-20-10 20-10" stroke="#03dac6" stroke-width="3" fill="#fff" fill-opacity="0"/><path d="M238.33 624.9h-20M218.33 624.9c0 5.53-4.48 10-10 10s-10-4.47-10-10c0-5.5 4.48-10 10-10s10 4.5 10 10" stroke="#03dac6" stroke-width="3" fill="#fff"/><path d="M969.94 446.74a6 6 0 0 1 6-6h548a6 6 0 0 1 6 6v284a6 6 0 0 1-6 6h-548a6 6 0 0 1-6-6z" fill="#bb86fc"/><path d="M969.94 480.74v-34a6 6 0 0 1 6-6h548a6 6 0 0 1 6 6v34" fill="#966bca"/><path d="M969.94 446.74a6 6 0 0 1 6-6h548a6 6 0 0 1 6 6v284a6 6 0 0 1-6 6h-548a6 6 0 0 1-6-6zM969.94 480.74h560M1210.82 480.74v256" stroke="#9e66e4" stroke-width="2" fill="none"/><use xlink:href="#D" transform="matrix(1,0,0,1,979.9389381323767,440.73479461207455) translate(0 23.6)"/><use xlink:href="#k" transform="matrix(1,0,0,1,974.9389381323767,483.23479461207455) translate(0 17.1)"/><use xlink:href="#l" transform="matrix(1,0,0,1,974.9389381323767,483.23479461207455) translate(18.95 17.1)"/><use xlink:href="#m" transform="matrix(1,0,0,1,1215.8241751431597,483.23479461207455) translate(0 17.1)"/><use xlink:href="#n" transform="matrix(1,0,0,1,1215.8241751431597,483.23479461207455) translate(48.9 17.1)"/><use xlink:href="#t" transform="matrix(1,0,0,1,974.9389381323767,515.2347946120746) translate(0 17.1)"/><use xlink:href="#u" transform="matrix(1,0,0,1,974.9389381323767,515.2347946120746) translate(57.900000000000006 17.1)"/><use xlink:href="#m" transform="matrix(1,0,0,1,1215.8241751431597,515.2347946120746) translate(0 17.1)"/><use xlink:href="#n" transform="matrix(1,0,0,1,1215.8241751431597,515.2347946120746) translate(48.9 17.1)"/><use xlink:href="#E" transform="matrix(1,0,0,1,974.9389381323767,547.2347946120746) translate(0 17.1)"/><use xlink:href="#u" transform="matrix(1,0,0,1,974.9389381323767,547.2347946120746) translate(88.95 17.1)"/><use xlink:href="#m" transform="matrix(1,0,0,1,1215.8241751431597,547.2347946120746) translate(0 17.1)"/><use xlink:href="#n" transform="matrix(1,0,0,1,1215.8241751431597,547.2347946120746) translate(48.9 17.1)"/><use xlink:href="#F" transform="matrix(1,0,0,1,974.9389381323767,579.2347946120746) translate(0 17.1)"/><use xlink:href="#u" transform="matrix(1,0,0,1,974.9389381323767,579.2347946120746) translate(124 17.1)"/><use xlink:href="#m" transform="matrix(1,0,0,1,1215.8241751431597,579.2347946120746) translate(0 17.1)"/><use xlink:href="#n" transform="matrix(1,0,0,1,1215.8241751431597,579.2347946120746) translate(48.9 17.1)"/><use xlink:href="#q" transform="matrix(1,0,0,1,974.9389381323767,611.2347946120746) translate(0 17.1)"/><use xlink:href="#p" transform="matrix(1,0,0,1,1215.8241751431597,611.2347946120746) translate(0 17.1)"/><use xlink:href="#G" transform="matrix(1,0,0,1,974.9389381323767,643.2347946120746) translate(0 17.1)"/><use xlink:href="#w" transform="matrix(1,0,0,1,1215.8241751431597,643.2347946120746) translate(0 17.1)"/><use xlink:href="#H" transform="matrix(1,0,0,1,974.9389381323767,675.2347946120746) translate(0 17.1)"/><use xlink:href="#I" transform="matrix(1,0,0,1,1215.8241751431597,675.2347946120746) translate(0 17.1)"/><use xlink:href="#x" transform="matrix(1,0,0,1,974.9389381323767,707.2347946120746) translate(0 17.1)"/><use xlink:href="#y" transform="matrix(1,0,0,1,1215.8241751431597,707.2347946120746) translate(0 17.1)"/><use xlink:href="#z" transform="matrix(1,0,0,1,1215.8241751431597,707.2347946120746) translate(49.95 17.1)"/><use xlink:href="#J" transform="matrix(1,0,0,1,1215.8241751431597,707.2347946120746) translate(160.70000000000002 17.1)"/><path d="M969.94 226.92a6 6 0 0 1 6-6h228a6 6 0 0 1 6 6v156a6 6 0 0 1-6 6h-228a6 6 0 0 1-6-6z" fill="#bb86fc"/><path d="M969.94 260.92v-34a6 6 0 0 1 6-6h228a6 6 0 0 1 6 6v34" fill="#966bca"/><path d="M969.94 226.92a6 6 0 0 1 6-6h228a6 6 0 0 1 6 6v156a6 6 0 0 1-6 6h-228a6 6 0 0 1-6-6zM969.94 260.92h240M1079.94 260.92v128" stroke="#9e66e4" stroke-width="2" fill="none"/><use xlink:href="#K" transform="matrix(1,0,0,1,979.9389381323765,220.9204813546121) translate(0 23.6)"/><use xlink:href="#k" transform="matrix(1,0,0,1,974.9389381323765,263.4204813546121) translate(0 17.1)"/><use xlink:href="#l" transform="matrix(1,0,0,1,974.9389381323765,263.4204813546121) translate(18.95 17.1)"/><use xlink:href="#m" transform="matrix(1,0,0,1,1084.9389381323763,263.4204813546121) translate(0 17.1)"/><use xlink:href="#n" transform="matrix(1,0,0,1,1084.9389381323763,263.4204813546121) translate(48.9 17.1)"/><g><use xlink:href="#L" transform="matrix(1,0,0,1,974.9389381323765,295.4204813546121) translate(0 17.1)"/><use xlink:href="#u" transform="matrix(1,0,0,1,974.9389381323765,295.4204813546121) translate(54.95 17.1)"/></g><g><use xlink:href="#m" transform="matrix(1,0,0,1,1084.9389381323763,295.4204813546121) translate(0 17.1)"/><use xlink:href="#n" transform="matrix(1,0,0,1,1084.9389381323763,295.4204813546121) translate(48.9 17.1)"/></g><g><use xlink:href="#q" transform="matrix(1,0,0,1,974.9389381323765,327.4204813546121) translate(0 17.1)"/></g><g><use xlink:href="#p" transform="matrix(1,0,0,1,1084.9389381323763,327.4204813546121) translate(0 17.1)"/></g><g><use xlink:href="#M" transform="matrix(1,0,0,1,974.9389381323765,359.4204813546121) translate(0 17.1)"/></g><g><use xlink:href="#p" transform="matrix(1,0,0,1,1084.9389381323763,359.4204813546121) translate(0 17.1)"/></g><path d="M801 592.74h147.94" stroke="#03dac6" stroke-width="3" fill="none"/><path d="M801 602.74v-20M781 592.74h20M948.94 582.74v20M968.94 592.74h-20" stroke="#03dac6" stroke-width="3" fill="#fff"/><path d="M791.44 308.82h72.75a6 6 0 0 1 6 6v207.8a6 6 0 0 0 6 6h54.24" stroke="#03dac6" stroke-width="3" fill="none"/><path d="M791.44 318.82v-20M771.44 308.82h20" stroke="#03dac6" stroke-width="3" fill="#fff"/><path d="M968.27 538.63l-20-10 20-10" stroke="#03dac6" stroke-width="3" fill="#fff" fill-opacity="0"/><path d="M968.27 528.63h-20M948.27 528.63c0 5.52-4.48 10-10 10s-10-4.48-10-10 4.48-10 10-10 10 4.48 10 10" stroke="#03dac6" stroke-width="3" fill="#fff"/><path d="M791.44 308.82h78.68a.07.07 0 0 1 .07.07.07.07 0 0 0 .06.05h80.44" stroke="#03dac6" stroke-width="3" fill="none"/><path d="M791.44 318.82v-20M771.44 308.82h20" stroke="#03dac6" stroke-width="3" fill="#fff"/><path d="M968.27 318.95l-20-10 20-10" stroke="#03dac6" stroke-width="3" fill="#fff" fill-opacity="0"/><path d="M968.27 308.95h-20" stroke="#03dac6" stroke-width="3" fill="#fff"/><path d="M1230.94 276.7h334a6 6 0 0 1 6 6v271.94a6 6 0 0 1-6 6h-15.77" stroke="#03dac6" stroke-width="3" fill="none"/><path d="M1230.94 286.7v-20M1210.94 276.7h20" stroke="#03dac6" stroke-width="3" fill="#fff"/><path d="M1531.6 550.63l20 10-20 10" stroke="#03dac6" stroke-width="3" fill="#fff" fill-opacity="0"/><path d="M1531.6 560.63h20" stroke="#03dac6" stroke-width="3" fill="#fff"/><defs><path fill="#fff" d="M24 0v-248h195v40H76v63h132v40H76v65h150V0H24" id="N"/><path fill="#fff" d="M240-174c0 40-23 61-54 70L253 0h-59l-57-94H76V0H24v-248c93 4 217-23 216 74zM76-134c48-2 112 12 112-38 0-48-66-32-112-35v73" id="O"/><path fill="#fff" d="M24-248c120-7 223 5 221 122C244-46 201 0 124 0H24v-248zM76-40c74 7 117-18 117-86 0-67-45-88-117-82v168" id="P"/><g id="a"><use transform="matrix(0.0728395061728395,0,0,0.0728395061728395,0,0)" xlink:href="#N"/><use transform="matrix(0.0728395061728395,0,0,0.0728395061728395,17.48148148148148,0)" xlink:href="#O"/><use transform="matrix(0.0728395061728395,0,0,0.0728395061728395,36.34691358024691,0)" xlink:href="#P"/></g><path fill="#fff" d="M14-72v-43h91v43H14" id="Q"/><use transform="matrix(0.0728395061728395,0,0,0.0728395061728395,0,0)" xlink:href="#Q" id="b"/><path fill="#fff" d="M76-208v77h127v40H76V0H24v-248h183v40H76" id="R"/><path fill="#fff" d="M25-224v-37h50v37H25zM25 0v-190h50V0H25" id="S"/><path fill="#fff" d="M135-194c87-1 58 113 63 194h-50c-7-57 23-157-34-157-59 0-34 97-39 157H25l-1-190h47c2 12-1 28 3 38 12-26 28-41 61-42" id="T"/><path fill="#fff" d="M190-63c-7 42-38 67-86 67-59 0-84-38-90-98-12-110 154-137 174-36l-49 2c-2-19-15-32-35-32-30 0-35 28-38 64-6 74 65 87 74 30" id="U"/><path fill="#fff" d="M114-157C55-157 80-60 75 0H25v-261h50l-1 109c12-26 28-41 61-42 86-1 58 113 63 194h-50c-7-57 23-157-34-157" id="V"/><g id="c"><use transform="matrix(0.0728395061728395,0,0,0.0728395061728395,0,0)" xlink:href="#R"/><use transform="matrix(0.0728395061728395,0,0,0.0728395061728395,15.95185185185185,0)" xlink:href="#S"/><use transform="matrix(0.0728395061728395,0,0,0.0728395061728395,23.235802469135802,0)" xlink:href="#T"/><use transform="matrix(0.0728395061728395,0,0,0.0728395061728395,39.187654320987654,0)" xlink:href="#U"/><use transform="matrix(0.0728395061728395,0,0,0.0728395061728395,53.75555555555555,0)" xlink:href="#V"/></g><path fill="#fff" d="M155-56V0h-30v-56H8v-25l114-167h33v167h35v25h-35zm-30-156c-27 46-58 90-88 131h88v-131" id="W"/><path fill="#fff" d="M24 0v-261h32V0H24" id="X"/><path fill="#fff" d="M179-190L93 31C79 59 56 82 12 73V49c39 6 53-20 64-50L1-190h34L92-34l54-156h33" id="Y"/><path fill="#fff" d="M135-143c-3-34-86-38-87 0 15 53 115 12 119 90S17 21 10-45l28-5c4 36 97 45 98 0-10-56-113-15-118-90-4-57 82-63 122-42 12 7 21 19 24 35" id="Z"/><path fill="#fff" d="M100-194c62-1 85 37 85 99 1 63-27 99-86 99S16-35 15-95c0-66 28-99 85-99zM99-20c44 1 53-31 53-75 0-43-8-75-51-75s-53 32-53 75 10 74 51 75" id="aa"/><path fill="#fff" d="M117-194c89-4 53 116 60 194h-32v-121c0-31-8-49-39-48C34-167 62-67 57 0H25l-1-190h30c1 10-1 24 2 32 11-22 29-35 61-36" id="ab"/><g id="e"><use transform="matrix(0.04248971193415638,0,0,0.04248971193415638,0,0)" xlink:href="#W"/><use transform="matrix(0.04248971193415638,0,0,0.04248971193415638,8.497942386831275,0)" xlink:href="#X"/><use transform="matrix(0.04248971193415638,0,0,0.04248971193415638,11.854629629629626,0)" xlink:href="#Y"/><use transform="matrix(0.04248971193415638,0,0,0.04248971193415638,19.502777777777776,0)" xlink:href="#Z"/><use transform="matrix(0.04248971193415638,0,0,0.04248971193415638,27.150925925925925,0)" xlink:href="#Z"/><use transform="matrix(0.04248971193415638,0,0,0.04248971193415638,34.79907407407407,0)" xlink:href="#aa"/><use transform="matrix(0.04248971193415638,0,0,0.04248971193415638,43.29701646090535,0)" xlink:href="#ab"/></g><path fill="#fff" d="M32 76v-337h29V76H32" id="ac"/><use transform="matrix(0.04248971193415638,0,0,0.04248971193415638,0,0)" xlink:href="#ac" id="f"/><path fill="#fff" d="M153-248C145-148 188 4 80 4 36 3 13-21 6-62l32-5c4 25 16 42 43 43 27 0 39-20 39-49v-147H72v-28h81" id="ad"/><path fill="#fff" d="M84 4C-5 8 30-112 23-190h32v120c0 31 7 50 39 49 72-2 45-101 50-169h31l1 190h-30c-1-10 1-25-2-33-11 22-28 36-60 37" id="ae"/><g id="g"><use transform="matrix(0.04248971193415638,0,0,0.04248971193415638,0,0)" xlink:href="#ad"/><use transform="matrix(0.04248971193415638,0,0,0.04248971193415638,7.648148148148148,0)" xlink:href="#ae"/><use transform="matrix(0.04248971193415638,0,0,0.04248971193415638,16.14609053497942,0)" xlink:href="#X"/><use transform="matrix(0.04248971193415638,0,0,0.04248971193415638,19.502777777777776,0)" xlink:href="#Y"/></g><path fill="#fff" d="M101-251c82-7 93 87 43 132L82-64C71-53 59-42 53-27h129V0H18c2-99 128-94 128-182 0-28-16-43-45-43s-46 15-49 41l-32-3c6-41 34-60 81-64" id="af"/><path fill="#fff" d="M68-38c1 34 0 65-14 84H32c9-13 17-26 17-46H33v-38h35" id="ag"/><g id="h"><use transform="matrix(0.04248971193415638,0,0,0.04248971193415638,0,0)" xlink:href="#af"/><use transform="matrix(0.04248971193415638,0,0,0.04248971193415638,8.497942386831275,0)" xlink:href="#af"/><use transform="matrix(0.04248971193415638,0,0,0.04248971193415638,16.99588477366255,0)" xlink:href="#ag"/></g><path fill="#fff" d="M101-251c68 0 85 55 85 127S166 4 100 4C33 4 14-52 14-124c0-73 17-127 87-127zm-1 229c47 0 54-49 54-102s-4-102-53-102c-51 0-55 48-55 102 0 53 5 102 54 102" id="ah"/><g id="i"><use transform="matrix(0.04248971193415638,0,0,0.04248971193415638,0,0)" xlink:href="#af"/><use transform="matrix(0.04248971193415638,0,0,0.04248971193415638,8.497942386831275,0)" xlink:href="#ah"/><use transform="matrix(0.04248971193415638,0,0,0.04248971193415638,16.99588477366255,0)" xlink:href="#af"/><use transform="matrix(0.04248971193415638,0,0,0.04248971193415638,25.493827160493822,0)" xlink:href="#W"/></g><path fill="#fff" d="M232-93c-1 65-40 97-104 97C67 4 28-28 28-90v-158h33c8 89-33 224 67 224 102 0 64-133 71-224h33v155" id="ai"/><path fill="#fff" d="M100-194c63 0 86 42 84 106H49c0 40 14 67 53 68 26 1 43-12 49-29l28 8c-11 28-37 45-77 45C44 4 14-33 15-96c1-61 26-98 85-98zm52 81c6-60-76-77-97-28-3 7-6 17-6 28h103" id="aj"/><path fill="#fff" d="M114-163C36-179 61-72 57 0H25l-1-190h30c1 12-1 29 2 39 6-27 23-49 58-41v29" id="ak"/><g id="j"><use transform="matrix(0.05,0,0,0.05,0,0)" xlink:href="#ai"/><use transform="matrix(0.05,0,0,0.05,12.950000000000001,0)" xlink:href="#Z"/><use transform="matrix(0.05,0,0,0.05,21.950000000000003,0)" xlink:href="#aj"/><use transform="matrix(0.05,0,0,0.05,31.950000000000003,0)" xlink:href="#ak"/></g><path fill="#fff" d="M24-231v-30h32v30H24zM24 0v-190h32V0H24" id="al"/><path fill="#fff" d="M85-194c31 0 48 13 60 33l-1-100h32l1 261h-30c-2-10 0-23-3-31C134-8 116 4 85 4 32 4 16-35 15-94c0-66 23-100 70-100zm9 24c-40 0-46 34-46 75 0 40 6 74 45 74 42 0 51-32 51-76 0-42-9-74-50-73" id="am"/><g id="k"><use transform="matrix(0.05,0,0,0.05,0,0)" xlink:href="#al"/><use transform="matrix(0.05,0,0,0.05,3.95,0)" xlink:href="#am"/></g><path fill="#fff" d="M87 75C49 33 22-17 22-94c0-76 28-126 65-167h31c-38 41-64 92-64 168S80 34 118 75H87" id="an"/><path fill="#fff" d="M30-248c87 1 191-15 191 75 0 78-77 80-158 76V0H30v-248zm33 125c57 0 124 11 124-50 0-59-68-47-124-48v98" id="ao"/><path fill="#fff" d="M194 0L95-120 63-95V0H30v-248h33v124l119-124h40L117-140 236 0h-42" id="ap"/><path fill="#fff" d="M33-261c38 41 65 92 65 168S71 34 33 75H2C39 34 66-17 66-93S39-220 2-261h31" id="aq"/><g id="l"><use transform="matrix(0.05,0,0,0.05,0,0)" xlink:href="#an"/><use transform="matrix(0.05,0,0,0.05,5.95,0)" xlink:href="#ao"/><use transform="matrix(0.05,0,0,0.05,17.95,0)" xlink:href="#ap"/><use transform="matrix(0.05,0,0,0.05,29.950000000000003,0)" xlink:href="#aq"/></g><path fill="#fff" d="M59-47c-2 24 18 29 38 22v24C64 9 27 4 27-40v-127H5v-23h24l9-43h21v43h35v23H59v120" id="ar"/><path fill="#fff" d="M177-190C167-65 218 103 67 71c-23-6-38-20-44-43l32-5c15 47 100 32 89-28v-30C133-14 115 1 83 1 29 1 15-40 15-95c0-56 16-97 71-98 29-1 48 16 59 35 1-10 0-23 2-32h30zM94-22c36 0 50-32 50-73 0-42-14-75-50-75-39 0-46 34-46 75s6 73 46 73" id="as"/><g id="m"><use transform="matrix(0.05,0,0,0.05,0,0)" xlink:href="#Z"/><use transform="matrix(0.05,0,0,0.05,9,0)" xlink:href="#ar"/><use transform="matrix(0.05,0,0,0.05,14,0)" xlink:href="#ak"/><use transform="matrix(0.05,0,0,0.05,19.95,0)" xlink:href="#al"/><use transform="matrix(0.05,0,0,0.05,23.9,0)" xlink:href="#ab"/><use transform="matrix(0.05,0,0,0.05,33.9,0)" xlink:href="#as"/></g><g id="n"><use transform="matrix(0.05,0,0,0.05,0,0)" xlink:href="#an"/><use transform="matrix(0.05,0,0,0.05,5.95,0)" xlink:href="#ae"/><use transform="matrix(0.05,0,0,0.05,15.949999999999998,0)" xlink:href="#ae"/><use transform="matrix(0.05,0,0,0.05,25.950000000000003,0)" xlink:href="#al"/><use transform="matrix(0.05,0,0,0.05,29.899999999999995,0)" xlink:href="#am"/><use transform="matrix(0.05,0,0,0.05,39.9,0)" xlink:href="#aq"/></g><path fill="#fff" d="M210-169c-67 3-38 105-44 169h-31v-121c0-29-5-50-35-48C34-165 62-65 56 0H25l-1-190h30c1 10-1 24 2 32 10-44 99-50 107 0 11-21 27-35 58-36 85-2 47 119 55 194h-31v-121c0-29-5-49-35-48" id="at"/><path fill="#fff" d="M141-36C126-15 110 5 73 4 37 3 15-17 15-53c-1-64 63-63 125-63 3-35-9-54-41-54-24 1-41 7-42 31l-33-3c5-37 33-52 76-52 45 0 72 20 72 64v82c-1 20 7 32 28 27v20c-31 9-61-2-59-35zM48-53c0 20 12 33 32 33 41-3 63-29 60-74-43 2-92-5-92 41" id="au"/><g id="o"><use transform="matrix(0.05,0,0,0.05,0,0)" xlink:href="#aj"/><use transform="matrix(0.05,0,0,0.05,10,0)" xlink:href="#at"/><use transform="matrix(0.05,0,0,0.05,24.950000000000003,0)" xlink:href="#au"/><use transform="matrix(0.05,0,0,0.05,34.95,0)" xlink:href="#al"/><use transform="matrix(0.05,0,0,0.05,38.900000000000006,0)" xlink:href="#X"/></g><g id="p"><use transform="matrix(0.05,0,0,0.05,0,0)" xlink:href="#Z"/><use transform="matrix(0.05,0,0,0.05,9,0)" xlink:href="#ar"/><use transform="matrix(0.05,0,0,0.05,14,0)" xlink:href="#ak"/><use transform="matrix(0.05,0,0,0.05,19.95,0)" xlink:href="#al"/><use transform="matrix(0.05,0,0,0.05,23.9,0)" xlink:href="#ab"/><use transform="matrix(0.05,0,0,0.05,33.9,0)" xlink:href="#as"/></g><g id="q"><use transform="matrix(0.05,0,0,0.05,0,0)" xlink:href="#ab"/><use transform="matrix(0.05,0,0,0.05,10,0)" xlink:href="#au"/><use transform="matrix(0.05,0,0,0.05,20,0)" xlink:href="#at"/><use transform="matrix(0.05,0,0,0.05,34.95,0)" xlink:href="#aj"/></g><path fill="#fff" d="M115-194c55 1 70 41 70 98S169 2 115 4C84 4 66-9 55-30l1 105H24l-1-265h31l2 30c10-21 28-34 59-34zm-8 174c40 0 45-34 45-75s-6-73-45-74c-42 0-51 32-51 76 0 43 10 73 51 73" id="av"/><path fill="#fff" d="M206 0h-36l-40-164L89 0H53L-1-190h32L70-26l43-164h34l41 164 42-164h31" id="aw"/><g id="r"><use transform="matrix(0.05,0,0,0.05,0,0)" xlink:href="#av"/><use transform="matrix(0.05,0,0,0.05,10,0)" xlink:href="#au"/><use transform="matrix(0.05,0,0,0.05,20,0)" xlink:href="#Z"/><use transform="matrix(0.05,0,0,0.05,29,0)" xlink:href="#Z"/><use transform="matrix(0.05,0,0,0.05,38,0)" xlink:href="#aw"/><use transform="matrix(0.05,0,0,0.05,50.95,0)" xlink:href="#aa"/><use transform="matrix(0.05,0,0,0.05,60.95,0)" xlink:href="#ak"/><use transform="matrix(0.05,0,0,0.05,66.9,0)" xlink:href="#am"/></g><path fill="#fff" d="M160-131c35 5 61 23 61 61C221 17 115-2 30 0v-248c76 3 177-17 177 60 0 33-19 50-47 57zm-97-11c50-1 110 9 110-42 0-47-63-36-110-37v79zm0 115c55-2 124 14 124-45 0-56-70-42-124-44v89" id="ax"/><path fill="#fff" d="M143 0L79-87 56-68V0H24v-261h32v163l83-92h37l-77 82L181 0h-38" id="ay"/><path fill="#fff" d="M205 0l-28-72H64L36 0H1l101-248h38L239 0h-34zm-38-99l-47-123c-12 45-31 82-46 123h93" id="az"/><path fill="#fff" d="M96-169c-40 0-48 33-48 73s9 75 48 75c24 0 41-14 43-38l32 2c-6 37-31 61-74 61-59 0-76-41-82-99-10-93 101-131 147-64 4 7 5 14 7 22l-32 3c-4-21-16-35-41-35" id="aA"/><g id="s"><use transform="matrix(0.05,0,0,0.05,0,0)" xlink:href="#ax"/><use transform="matrix(0.05,0,0,0.05,12,0)" xlink:href="#au"/><use transform="matrix(0.05,0,0,0.05,22,0)" xlink:href="#ab"/><use transform="matrix(0.05,0,0,0.05,32,0)" xlink:href="#ay"/><use transform="matrix(0.05,0,0,0.05,41,0)" xlink:href="#az"/><use transform="matrix(0.05,0,0,0.05,53,0)" xlink:href="#aA"/><use transform="matrix(0.05,0,0,0.05,62,0)" xlink:href="#aA"/><use transform="matrix(0.05,0,0,0.05,71,0)" xlink:href="#aa"/><use transform="matrix(0.05,0,0,0.05,81,0)" xlink:href="#ae"/><use transform="matrix(0.05,0,0,0.05,91,0)" xlink:href="#ab"/><use transform="matrix(0.05,0,0,0.05,101,0)" xlink:href="#ar"/></g><path fill="#fff" d="M33 0v-248h34V0H33" id="aB"/><path fill="#fff" d="M30-248c118-7 216 8 213 122C240-48 200 0 122 0H30v-248zM63-27c89 8 146-16 146-99s-60-101-146-95v194" id="aC"/><g id="t"><use transform="matrix(0.05,0,0,0.05,0,0)" xlink:href="#ae"/><use transform="matrix(0.05,0,0,0.05,10,0)" xlink:href="#Z"/><use transform="matrix(0.05,0,0,0.05,19,0)" xlink:href="#aj"/><use transform="matrix(0.05,0,0,0.05,29,0)" xlink:href="#ak"/><use transform="matrix(0.05,0,0,0.05,34.95,0)" xlink:href="#aB"/><use transform="matrix(0.05,0,0,0.05,39.95,0)" xlink:href="#aC"/></g><path fill="#fff" d="M63-220v92h138v28H63V0H30v-248h175v28H63" id="aD"/><g id="u"><use transform="matrix(0.05,0,0,0.05,0,0)" xlink:href="#an"/><use transform="matrix(0.05,0,0,0.05,5.95,0)" xlink:href="#aD"/><use transform="matrix(0.05,0,0,0.05,16.900000000000002,0)" xlink:href="#ap"/><use transform="matrix(0.05,0,0,0.05,28.900000000000002,0)" xlink:href="#aq"/></g><g id="v"><use transform="matrix(0.05,0,0,0.05,0,0)" xlink:href="#al"/><use transform="matrix(0.05,0,0,0.05,3.95,0)" xlink:href="#ab"/><use transform="matrix(0.05,0,0,0.05,13.949999999999998,0)" xlink:href="#al"/><use transform="matrix(0.05,0,0,0.05,17.9,0)" xlink:href="#ar"/><use transform="matrix(0.05,0,0,0.05,22.9,0)" xlink:href="#al"/><use transform="matrix(0.05,0,0,0.05,26.849999999999994,0)" xlink:href="#au"/><use transform="matrix(0.05,0,0,0.05,36.849999999999994,0)" xlink:href="#X"/><use transform="matrix(0.05,0,0,0.05,40.8,0)" xlink:href="#ax"/><use transform="matrix(0.05,0,0,0.05,52.79999999999999,0)" xlink:href="#au"/><use transform="matrix(0.05,0,0,0.05,62.79999999999999,0)" xlink:href="#X"/><use transform="matrix(0.05,0,0,0.05,66.75,0)" xlink:href="#au"/><use transform="matrix(0.05,0,0,0.05,76.75,0)" xlink:href="#ab"/><use transform="matrix(0.05,0,0,0.05,86.75,0)" xlink:href="#aA"/><use transform="matrix(0.05,0,0,0.05,95.75,0)" xlink:href="#aj"/></g><path fill="#fff" d="M115-194c53 0 69 39 70 98 0 66-23 100-70 100C84 3 66-7 56-30L54 0H23l1-261h32v101c10-23 28-34 59-34zm-8 174c40 0 45-34 45-75 0-40-5-75-45-74-42 0-51 32-51 76 0 43 10 73 51 73" id="aE"/><g id="w"><use transform="matrix(0.05,0,0,0.05,0,0)" xlink:href="#ab"/><use transform="matrix(0.05,0,0,0.05,10,0)" xlink:href="#ae"/><use transform="matrix(0.05,0,0,0.05,20,0)" xlink:href="#at"/><use transform="matrix(0.05,0,0,0.05,34.95,0)" xlink:href="#aE"/><use transform="matrix(0.05,0,0,0.05,44.95,0)" xlink:href="#aj"/><use transform="matrix(0.05,0,0,0.05,54.95,0)" xlink:href="#ak"/></g><g id="x"><use transform="matrix(0.05,0,0,0.05,0,0)" xlink:href="#ar"/><use transform="matrix(0.05,0,0,0.05,5,0)" xlink:href="#Y"/><use transform="matrix(0.05,0,0,0.05,14,0)" xlink:href="#av"/><use transform="matrix(0.05,0,0,0.05,24,0)" xlink:href="#aj"/></g><g id="y"><use transform="matrix(0.05,0,0,0.05,0,0)" xlink:href="#aj"/><use transform="matrix(0.05,0,0,0.05,10,0)" xlink:href="#ab"/><use transform="matrix(0.05,0,0,0.05,20,0)" xlink:href="#ae"/><use transform="matrix(0.05,0,0,0.05,30,0)" xlink:href="#at"/></g><path fill="#fff" d="M212-179c-10-28-35-45-73-45-59 0-87 40-87 99 0 60 29 101 89 101 43 0 62-24 78-52l27 14C228-24 195 4 139 4 59 4 22-46 18-125c-6-104 99-153 187-111 19 9 31 26 39 46" id="aF"/><path fill="#fff" d="M197 0v-115H63V0H30v-248h33v105h134v-105h34V0h-34" id="aG"/><path fill="#fff" d="M30 0v-248h187v28H63v79h144v27H63v87h162V0H30" id="aH"/><path fill="#fff" d="M190 0L58-211 59 0H30v-248h39L202-35l-2-213h31V0h-41" id="aI"/><path fill="#fff" d="M143 4C61 4 22-44 18-125c-5-107 100-154 193-111 17 8 29 25 37 43l-32 9c-13-25-37-40-76-40-61 0-88 39-88 99 0 61 29 100 91 101 35 0 62-11 79-27v-45h-74v-28h105v86C228-13 192 4 143 4" id="aJ"/><g id="z"><use transform="matrix(0.05,0,0,0.05,0,0)" xlink:href="#an"/><use transform="matrix(0.05,0,0,0.05,5.95,0)" xlink:href="#aF"/><use transform="matrix(0.05,0,0,0.05,18.900000000000002,0)" xlink:href="#aG"/><use transform="matrix(0.05,0,0,0.05,31.85,0)" xlink:href="#aH"/><use transform="matrix(0.05,0,0,0.05,43.85,0)" xlink:href="#aF"/><use transform="matrix(0.05,0,0,0.05,56.800000000000004,0)" xlink:href="#ap"/><use transform="matrix(0.05,0,0,0.05,68.80000000000001,0)" xlink:href="#aB"/><use transform="matrix(0.05,0,0,0.05,73.80000000000001,0)" xlink:href="#aI"/><use transform="matrix(0.05,0,0,0.05,86.75000000000001,0)" xlink:href="#aJ"/><use transform="matrix(0.05,0,0,0.05,100.75000000000001,0)" xlink:href="#ag"/></g><path fill="#fff" d="M137 0h-34L2-248h35l83 218 83-218h36" id="aK"/><path fill="#fff" d="M185-189c-5-48-123-54-124 2 14 75 158 14 163 119 3 78-121 87-175 55-17-10-28-26-33-46l33-7c5 56 141 63 141-1 0-78-155-14-162-118-5-82 145-84 179-34 5 7 8 16 11 25" id="aL"/><path fill="#fff" d="M127-220V0H93v-220H8v-28h204v28h-85" id="aM"/><path fill="#fff" d="M240 0l2-218c-23 76-54 145-80 218h-23L58-218 59 0H30v-248h44l77 211c21-75 51-140 76-211h43V0h-30" id="aN"/><g id="A"><use transform="matrix(0.05,0,0,0.05,0,0)" xlink:href="#aB"/><use transform="matrix(0.05,0,0,0.05,5,0)" xlink:href="#aI"/><use transform="matrix(0.05,0,0,0.05,17.950000000000003,0)" xlink:href="#aK"/><use transform="matrix(0.05,0,0,0.05,29.950000000000003,0)" xlink:href="#aH"/><use transform="matrix(0.05,0,0,0.05,41.95,0)" xlink:href="#aL"/><use transform="matrix(0.05,0,0,0.05,53.95,0)" xlink:href="#aM"/><use transform="matrix(0.05,0,0,0.05,64.9,0)" xlink:href="#aN"/><use transform="matrix(0.05,0,0,0.05,79.85000000000001,0)" xlink:href="#aH"/><use transform="matrix(0.05,0,0,0.05,91.85000000000001,0)" xlink:href="#aI"/><use transform="matrix(0.05,0,0,0.05,104.80000000000001,0)" xlink:href="#aM"/><use transform="matrix(0.05,0,0,0.05,113.75,0)" xlink:href="#ag"/></g><g id="B"><use transform="matrix(0.05,0,0,0.05,0,0)" xlink:href="#aF"/><use transform="matrix(0.05,0,0,0.05,12.950000000000001,0)" xlink:href="#az"/><use transform="matrix(0.05,0,0,0.05,24.950000000000003,0)" xlink:href="#aL"/><use transform="matrix(0.05,0,0,0.05,36.95,0)" xlink:href="#aG"/><use transform="matrix(0.05,0,0,0.05,49.900000000000006,0)" xlink:href="#aq"/></g><g id="C"><use transform="matrix(0.05,0,0,0.05,0,0)" xlink:href="#aA"/><use transform="matrix(0.05,0,0,0.05,9,0)" xlink:href="#aa"/><use transform="matrix(0.05,0,0,0.05,19,0)" xlink:href="#X"/><use transform="matrix(0.05,0,0,0.05,22.95,0)" xlink:href="#aa"/><use transform="matrix(0.05,0,0,0.05,32.95,0)" xlink:href="#ak"/></g><g id="D"><use transform="matrix(0.05,0,0,0.05,0,0)" xlink:href="#aM"/><use transform="matrix(0.05,0,0,0.05,10.3,0)" xlink:href="#ak"/><use transform="matrix(0.05,0,0,0.05,16.25,0)" xlink:href="#au"/><use transform="matrix(0.05,0,0,0.05,26.25,0)" xlink:href="#ab"/><use transform="matrix(0.05,0,0,0.05,36.25,0)" xlink:href="#Z"/><use transform="matrix(0.05,0,0,0.05,45.25,0)" xlink:href="#au"/><use transform="matrix(0.05,0,0,0.05,55.25,0)" xlink:href="#aA"/><use transform="matrix(0.05,0,0,0.05,64.25,0)" xlink:href="#ar"/><use transform="matrix(0.05,0,0,0.05,69.25,0)" xlink:href="#al"/><use transform="matrix(0.05,0,0,0.05,73.2,0)" xlink:href="#aa"/><use transform="matrix(0.05,0,0,0.05,83.2,0)" xlink:href="#ab"/></g><g id="E"><use transform="matrix(0.05,0,0,0.05,0,0)" xlink:href="#aA"/><use transform="matrix(0.05,0,0,0.05,9,0)" xlink:href="#au"/><use transform="matrix(0.05,0,0,0.05,19,0)" xlink:href="#ar"/><use transform="matrix(0.05,0,0,0.05,24,0)" xlink:href="#aj"/><use transform="matrix(0.05,0,0,0.05,34,0)" xlink:href="#as"/><use transform="matrix(0.05,0,0,0.05,44,0)" xlink:href="#aa"/><use transform="matrix(0.05,0,0,0.05,54,0)" xlink:href="#ak"/><use transform="matrix(0.05,0,0,0.05,59.95,0)" xlink:href="#Y"/><use transform="matrix(0.05,0,0,0.05,68.95,0)" xlink:href="#aB"/><use transform="matrix(0.05,0,0,0.05,73.95,0)" xlink:href="#am"/></g><g id="F"><use transform="matrix(0.05,0,0,0.05,0,0)" xlink:href="#aE"/><use transform="matrix(0.05,0,0,0.05,10,0)" xlink:href="#au"/><use transform="matrix(0.05,0,0,0.05,20,0)" xlink:href="#ab"/><use transform="matrix(0.05,0,0,0.05,30,0)" xlink:href="#ay"/><use transform="matrix(0.05,0,0,0.05,39,0)" xlink:href="#az"/><use transform="matrix(0.05,0,0,0.05,51,0)" xlink:href="#aA"/><use transform="matrix(0.05,0,0,0.05,60,0)" xlink:href="#aA"/><use transform="matrix(0.05,0,0,0.05,69,0)" xlink:href="#aa"/><use transform="matrix(0.05,0,0,0.05,79,0)" xlink:href="#ae"/><use transform="matrix(0.05,0,0,0.05,89,0)" xlink:href="#ab"/><use transform="matrix(0.05,0,0,0.05,99,0)" xlink:href="#ar"/><use transform="matrix(0.05,0,0,0.05,104,0)" xlink:href="#aB"/><use transform="matrix(0.05,0,0,0.05,109,0)" xlink:href="#am"/></g><path fill="#fff" d="M108 0H70L1-190h34L89-25l56-165h34" id="aO"/><g id="G"><use transform="matrix(0.05,0,0,0.05,0,0)" xlink:href="#aO"/><use transform="matrix(0.05,0,0,0.05,9,0)" xlink:href="#au"/><use transform="matrix(0.05,0,0,0.05,19,0)" xlink:href="#X"/><use transform="matrix(0.05,0,0,0.05,22.95,0)" xlink:href="#ae"/><use transform="matrix(0.05,0,0,0.05,32.95,0)" xlink:href="#aj"/></g><g id="H"><use transform="matrix(0.05,0,0,0.05,0,0)" xlink:href="#am"/><use transform="matrix(0.05,0,0,0.05,10,0)" xlink:href="#au"/><use transform="matrix(0.05,0,0,0.05,20,0)" xlink:href="#ar"/><use transform="matrix(0.05,0,0,0.05,25,0)" xlink:href="#aj"/></g><g id="I"><use transform="matrix(0.05,0,0,0.05,0,0)" xlink:href="#aC"/><use transform="matrix(0.05,0,0,0.05,12.950000000000001,0)" xlink:href="#au"/><use transform="matrix(0.05,0,0,0.05,22.950000000000003,0)" xlink:href="#ar"/><use transform="matrix(0.05,0,0,0.05,27.950000000000003,0)" xlink:href="#aj"/></g><g id="J"><use transform="matrix(0.05,0,0,0.05,0,0)" xlink:href="#aB"/><use transform="matrix(0.05,0,0,0.05,5,0)" xlink:href="#aI"/><use transform="matrix(0.05,0,0,0.05,17.950000000000003,0)" xlink:href="#aK"/><use transform="matrix(0.05,0,0,0.05,29.950000000000003,0)" xlink:href="#aH"/><use transform="matrix(0.05,0,0,0.05,41.95,0)" xlink:href="#aL"/><use transform="matrix(0.05,0,0,0.05,53.95,0)" xlink:href="#aM"/><use transform="matrix(0.05,0,0,0.05,64.9,0)" xlink:href="#aN"/><use transform="matrix(0.05,0,0,0.05,79.85000000000001,0)" xlink:href="#aH"/><use transform="matrix(0.05,0,0,0.05,91.85000000000001,0)" xlink:href="#aI"/><use transform="matrix(0.05,0,0,0.05,104.80000000000001,0)" xlink:href="#aM"/><use transform="matrix(0.05,0,0,0.05,115.75,0)" xlink:href="#aq"/></g><g id="K"><use transform="matrix(0.05,0,0,0.05,0,0)" xlink:href="#aF"/><use transform="matrix(0.05,0,0,0.05,12.950000000000001,0)" xlink:href="#au"/><use transform="matrix(0.05,0,0,0.05,22.950000000000003,0)" xlink:href="#ar"/><use transform="matrix(0.05,0,0,0.05,27.950000000000003,0)" xlink:href="#aj"/><use transform="matrix(0.05,0,0,0.05,37.95,0)" xlink:href="#as"/><use transform="matrix(0.05,0,0,0.05,47.95,0)" xlink:href="#aa"/><use transform="matrix(0.05,0,0,0.05,57.95,0)" xlink:href="#ak"/><use transform="matrix(0.05,0,0,0.05,63.900000000000006,0)" xlink:href="#Y"/></g><g id="L"><use transform="matrix(0.05,0,0,0.05,0,0)" xlink:href="#ae"/><use transform="matrix(0.05,0,0,0.05,10,0)" xlink:href="#Z"/><use transform="matrix(0.05,0,0,0.05,19,0)" xlink:href="#aj"/><use transform="matrix(0.05,0,0,0.05,29,0)" xlink:href="#ak"/><use transform="matrix(0.05,0,0,0.05,34.95,0)" xlink:href="#aB"/><use transform="matrix(0.05,0,0,0.05,39.95,0)" xlink:href="#am"/></g><g id="M"><use transform="matrix(0.05,0,0,0.05,0,0)" xlink:href="#al"/><use transform="matrix(0.05,0,0,0.05,3.95,0)" xlink:href="#aA"/><use transform="matrix(0.05,0,0,0.05,12.949999999999998,0)" xlink:href="#aa"/><use transform="matrix(0.05,0,0,0.05,22.95,0)" xlink:href="#ab"/></g></defs></g></svg>
